<?xml version="1.0" encoding="utf-8"?>
<?xml-stylesheet type="text/xsl" href="rss1.xsl"?>
<rss version="2.0" xmlns:atom="http://www.w3.org/2005/Atom" xmlns:content="http://purl.org/rss/1.0/modules/content/" xmlns:dc="http://purl.org/dc/elements/1.1/" xmlns:media="http://search.yahoo.com/mrss/">
<channel>
 <title>Getty</title>
 <link>http://www.gettyimg.com/</link>
 <atom:link href="http://www.gettyimg.com/" rel="self" type="application/rss+xml" />

 
                <item>
                <title><![CDATA[【Cinema Center】MOVIE - Barbie in The Nutcracker (2001) 1080p Remastered]]></title>
                <link><![CDATA[https://sharemania.us/threads/barbie-in-the-nutcracker-2001-1080p-remastered.240842/]]></link>
                <description><![CDATA[<article>
<blockquote class="messageText SelectQuoteContainer ugc baseHtml">
<div style="text-align: center"><br>
<span style="font-size: 22px"><b>____________________________________________________</b><br>
<br>
</span><br>
<img src="https://m.media-amazon.com/images/M/MV5BMTk0Y2E2MjgtZDBhNi00OTQ3LTkyYzAtNTdmNzRhYTczZWI2XkEyXkFqcGdeQXVyNDE5MTU2MDE@._V1_.jpg" class="bbCodeImage LbImage" alt="[​IMG]" data-url="https://m.media-amazon.com/images/M/MV5BMTk0Y2E2MjgtZDBhNi00OTQ3LTkyYzAtNTdmNzRhYTczZWI2XkEyXkFqcGdeQXVyNDE5MTU2MDE@._V1_.jpg" style=""><br>
<span style="font-family: 'Times New Roman'"><span style="font-size: 26px"><b>1080P REMASTERED</b><br>
<br>
<b>_________________________________________________</b><br>
<br>
</span></span>​</div><span style="font-family: 'Arial'"><span style="font-size: 15px"><b>SCREENSHOTS:</b></span></span><br>
<div style="text-align: center"><img src="https://i.imgur.com/aRDvJTu.png" class="bbCodeImage LbImage" alt="[​IMG]" data-url="https://i.imgur.com/aRDvJTu.png" style=""> <br>
<img src="https://i.imgur.com/XDAabY6.png" class="bbCodeImage LbImage" alt="[​IMG]" data-url="https://i.imgur.com/XDAabY6.png" style=""> <br>
<img src="https://i.imgur.com/SinM6IG.png" class="bbCodeImage LbImage" alt="[​IMG]" data-url="https://i.imgur.com/SinM6IG.png" style="">​</div><br>
<b>INFO:</b><br>
Remastered with: Topaz Video Enhancer<br>
Source: Polish DVD (576p)<br>
No audio on google drive file!! (Soon i will re-upload with english 5.1 audio track and maybe some languages)<br>
<br>
<b>DOWNLOAD (23GB/GOOGLE DRIVE):</b><br>
<div class="bbCodeBlock bbCodeVfcHH HiddenContent">
<div class="attribution type">Hidden Content:</div>
<blockquote>You must reply before you can see the hidden data contained here.</blockquote>
</div><b>WATCH:</b><br>
<div class="bbCodeBlock bbCodeVfcHH HiddenContent">
<div class="attribution type">Hidden Content:</div>
<blockquote>You must reply before you can see the hidden data contained here.</blockquote>
</div>
<div class="messageTextEndMarker">&nbsp;</div>
</blockquote>
</article>]]></description>
                <author><![CDATA[zac26]]></author>
                </item>

                
                <item>
                <title><![CDATA[【Music Videos】Aleks Syntek Y La Gente Normal - El Camino (1080p) (Clean)]]></title>
                <link><![CDATA[https://sharemania.us/threads/aleks-syntek-y-la-gente-normal-el-camino-1080p-clean.240840/]]></link>
                <description><![CDATA[<article>
<blockquote class="messageText SelectQuoteContainer ugc baseHtml">
<img src="https://i.ibb.co/SVHLLRT/Aleks-Syntek-y-la-Gente-Normal-El-Camino-1080p-mp4-thumbs-2024-03-27-00-33-39.jpg" class="bbCodeImage LbImage" alt="[​IMG]" data-url="https://i.ibb.co/SVHLLRT/Aleks-Syntek-y-la-Gente-Normal-El-Camino-1080p-mp4-thumbs-2024-03-27-00-33-39.jpg" style=""> <br>
<br>
<div class="ToggleTriggerAnchor bbCodeSpoilerContainer">
<button type="button" class="button bbCodeSpoilerButton ToggleTrigger Tooltip JsOnly" data-target="> .SpoilerTarget"><span>Spoiler: <span class="SpoilerTitle">MediaInfo</span></span></button>
<div class="SpoilerTarget bbCodeSpoilerText">Aleks Syntek y la Gente Normal - El Camino (1080p).mp4<br>
Format : MPEG-4<br>
Format profile : Base Media / Version 2<br>
Codec ID : mp42 (mp42/mp41)<br>
File size : 348 MiB<br>
Duration : 4 min 44 s<br>
Overall bit rate mode : Variable<br>
Overall bit rate : 10.3 Mb/s<br>
Frame rate : 60.000 FPS<br>
Encoded date : 2024-03-27 03:22:10 UTC<br>
Tagged date : 2024-03-27 03:22:57 UTC<br>
TIM : 00:00:00:00<br>
TSC : 60<br>
TSZ : 1<br>
<br>
Video<br>
ID : 1<br>
Format : AVC<br>
Format/Info : Advanced Video Codec<br>
Format profile : Main@L4.2<br>
Format settings : CABAC / 4 Ref Frames<br>
Format settings, CABAC : Yes<br>
Format settings, Reference : 4 frames<br>
Codec ID : avc1<br>
Codec ID/Info : Advanced Video Coding<br>
Duration : 4 min 44 s<br>
Bit rate : 9 963 kb/s<br>
Width : 1 920 pixels<br>
Height : 1 080 pixels<br>
Display aspect ratio : 16:9<br>
Frame rate mode : Constant<br>
Frame rate : 60.000 FPS<br>
Color space : YUV<br>
Chroma subsampling : 4:2:0<br>
Bit depth : 8 bits<br>
Scan type : Progressive<br>
Bits/(Pixel*Frame) : 0.080<br>
Stream size : 337 MiB (97%)<br>
Language : English<br>
Encoded date : 2024-03-27 03:22:10 UTC<br>
Tagged date : 2024-03-27 03:22:10 UTC<br>
Color range : Limited<br>
Color primaries : BT.709<br>
Transfer characteristics : BT.709<br>
Matrix coefficients : BT.709<br>
Codec configuration box : avcC<br>
<br>
Audio<br>
ID : 2<br>
Format : AAC LC<br>
Format/Info : Advanced Audio Codec Low Complexity<br>
Codec ID : mp4a-40-2<br>
Duration : 4 min 44 s<br>
Source duration : 4 min 44 s<br>
Bit rate mode : Variable<br>
Bit rate : 317 kb/s<br>
Maximum bit rate : 435 kb/s<br>
Channel(s) : 2 channels<br>
Channel layout : L R<br>
Sampling rate : 48.0 kHz<br>
Frame rate : 46.875 FPS (1024 SPF)<br>
Compression mode : Lossy<br>
Stream size : 10.7 MiB (3%)<br>
Source stream size : 10.7 MiB (3%)<br>
Language : English<br>
Encoded date : 2024-03-27 03:22:10 UTC<br>
Tagged date : 2024-03-27 03:22:10 UTC</div>
</div><br>
<div class="bbCodeBlock bbCodeVfcHH HiddenContent">
<div class="attribution type">Hidden Content:</div>
<blockquote>You must reply before you can see the hidden data contained here.</blockquote>
</div>
<div class="messageTextEndMarker">&nbsp;</div>
</blockquote>
</article>]]></description>
                <author><![CDATA[DJ-RoGeRs-BS]]></author>
                </item>

                
                <item>
                <title><![CDATA[【Singles (lossy)】iTunes Plus - Camila Cabello - I LUV IT (feat. Playboi Carti)  | 16bits/44.1kHz | 256kb/s ACC M4A]]></title>
                <link><![CDATA[https://sharemania.us/threads/camila-cabello-i-luv-it-feat-playboi-carti-16bits-44-1khz-256kb-s-acc-m4a.240841/]]></link>
                <description><![CDATA[<article>
<blockquote class="messageText SelectQuoteContainer ugc baseHtml">
<div style="text-align: center"><span style="font-family: 'Courier New'"><span style="font-size: 22px"><b>Camila Cabello - I LUV IT (feat. Playboi Carti) - Single</b><br>
</span><br>
<span style="font-size: 15px"><b>Release Date</b>: 03/27/2024<br>
<b>Genre</b>: Pop<br>
<b>Source</b>: Itunes Store<br>
<br>
01. I LUV IT (feat. Playboi Carti)<br>
</span></span><br>
<span style="font-family: 'Arial'"><span style="font-size: 15px">
<div class="bbCodeBlock bbCodeVfcHH HiddenContent">
<div class="attribution type">Hidden Content:</div>
<blockquote>You must either reply or click 'Like' to see the hidden information contained here.</blockquote>
</div></span></span>​</div>
<div class="messageTextEndMarker">&nbsp;</div>
</blockquote>
</article>]]></description>
                <author><![CDATA[sunfloweronly]]></author>
                </item>

                </channel></rss>